<svg width="24" height="24" viewBox="0 0 24 24" fill="none" xmlns="http://www.w3.org/2000/svg">
<style>
  /* light mode uses the inline #4D4D4B colors; switch to #C7C7C7 in dark mode */
  @media (prefers-color-scheme:dark){
    [stroke="#4D4D4B"]{stroke:#C7C7C7;}
    [fill="#4D4D4B"]{fill:#C7C7C7;}
  }
</style>
<path opacity="0.4" d="M6.00006 8.05573V4.42857C6.00006 4.19188 6.19196 4 6.42866 4C7.84876 4 9.00046 5.15569 9.00046 6.57585L9.00026 7V13C9.00026 15.357 9.00026 16.5355 9.73246 17.2678C10.4648 18 11.6433 18 14.0003 18L16.0042 17.9723L12.3653 20.2717C12.1246 20.4222 11.9187 20.6222 11.7612 20.8583L11.0001 22L3.00006 20C3.64346 18.7133 5.00006 17.0243 5.00006 15.5279C5.00006 13.8295 4.63296 11.7341 5.42236 10.1554C5.75566 9.48892 6.00006 8.81397 6.00006 8.05573Z" fill="#4D4D4B"/>
<path d="M3 20C3.6433 18.7133 5 17.0243 5 15.5279C5 13.8295 4.6329 11.7341 5.4223 10.1554C5.7555 9.48892 6 8.81397 6 8.05573V4.42857C6 4.19188 6.1919 4 6.4286 4C7.8487 4 9 5.15127 9 6.57143M16 18L12.3652 20.2717C12.1245 20.4222 11.9186 20.6222 11.7611 20.8583L11 22" stroke="#4D4D4B" stroke-width="1.5" stroke-linecap="round"/>
<path d="M18.9727 15C18.918 16.0967 18.7548 16.7809 18.268 17.2678C17.5357 18 16.3572 18 14.0002 18C11.6432 18 10.4647 18 9.7324 17.2678C9.0002 16.5355 9.0002 15.357 9.0002 13V7C9.0002 4.64298 9.0002 3.46447 9.7324 2.73223C10.4647 2 11.6432 2 14.0002 2C16.3572 2 17.5357 2 18.268 2.73223C18.7548 3.2191 18.918 3.90328 18.9727 5" stroke="#4D4D4B" stroke-width="1.5" stroke-linejoin="round"/>
<g opacity="0.4">
<path d="M18.25 5H19.75C20.4404 5 21 5.55964 21 6.25C21 6.94036 20.4404 7.5 19.75 7.5H18.25C17.5596 7.5 17 6.94036 17 6.25C17 5.55964 17.5596 5 18.25 5Z" fill="#4D4D4B"/>
<path d="M17.25 7.5H19.75C20.4404 7.5 21 8.05964 21 8.75C21 9.44036 20.4404 10 19.75 10H17.25C16.5596 10 16 9.44036 16 8.75C16 8.05964 16.5596 7.5 17.25 7.5Z" fill="#4D4D4B"/>
<path d="M18.25 10H19.75C20.4404 10 21 10.5596 21 11.25C21 11.9404 20.4404 12.5 19.75 12.5H18.25C17.5596 12.5 17 11.9404 17 11.25C17 10.5596 17.5596 10 18.25 10Z" fill="#4D4D4B"/>
<path d="M18.75 12.5H19.75C20.4404 12.5 21 13.0596 21 13.75C21 14.4404 20.4404 15 19.75 15H18.75C18.0596 15 17.5 14.4404 17.5 13.75C17.5 13.0596 18.0596 12.5 18.75 12.5Z" fill="#4D4D4B"/>
</g>
<path d="M19.75 7.5H18.25C17.5596 7.5 17 6.94036 17 6.25C17 5.55964 17.5596 5 18.25 5H19.75C20.4404 5 21 5.55964 21 6.25C21 6.94036 20.4404 7.5 19.75 7.5ZM19.75 7.5H17.25C16.5596 7.5 16 8.05964 16 8.75C16 9.44036 16.5596 10 17.25 10H19.75M19.75 7.5C20.4404 7.5 21 8.05964 21 8.75C21 9.44036 20.4404 10 19.75 10M19.75 12.5H18.75C18.0596 12.5 17.5 13.0596 17.5 13.75C17.5 14.4404 18.0596 15 18.75 15H19.75C20.4404 15 21 14.4404 21 13.75C21 13.0596 20.4404 12.5 19.75 12.5ZM19.75 12.5C20.4404 12.5 21 11.9404 21 11.25C21 10.5596 20.4404 10 19.75 10M19.75 12.5H18.25C17.5596 12.5 17 11.9404 17 11.25C17 10.5596 17.5596 10 18.25 10H19.75" stroke="#4D4D4B" stroke-width="1.5" stroke-linecap="round"/>
</svg>
